<svg width="573" height="25" viewBox="0 0 573 25" fill="none" xmlns="http://www.w3.org/2000/svg">
<path d="M468.104 18L465.448 13.44H463.688V18H462.232V6.848H465.832C466.675 6.848 467.384 6.992 467.96 7.28C468.547 7.568 468.984 7.95733 469.272 8.448C469.56 8.93867 469.704 9.49867 469.704 10.128C469.704 10.896 469.48 11.5733 469.032 12.16C468.595 12.7467 467.933 13.136 467.048 13.328L469.848 18H468.104ZM463.688 12.272H465.832C466.621 12.272 467.213 12.08 467.608 11.696C468.003 11.3013 468.2 10.7787 468.2 10.128C468.2 9.46667 468.003 8.95467 467.608 8.592C467.224 8.22933 466.632 8.048 465.832 8.048H463.688V12.272ZM475.07 18.144C474.398 18.144 473.796 18.032 473.262 17.808C472.729 17.5733 472.308 17.2533 471.998 16.848C471.689 16.432 471.518 15.9573 471.486 15.424H472.99C473.033 15.8613 473.236 16.2187 473.598 16.496C473.972 16.7733 474.457 16.912 475.054 16.912C475.609 16.912 476.046 16.7893 476.366 16.544C476.686 16.2987 476.846 15.9893 476.846 15.616C476.846 15.232 476.676 14.9493 476.334 14.768C475.993 14.576 475.465 14.3893 474.75 14.208C474.1 14.0373 473.566 13.8667 473.15 13.696C472.745 13.5147 472.393 13.2533 472.094 12.912C471.806 12.56 471.662 12.1013 471.662 11.536C471.662 11.088 471.796 10.6773 472.062 10.304C472.329 9.93067 472.708 9.63733 473.198 9.424C473.689 9.2 474.249 9.088 474.878 9.088C475.849 9.088 476.633 9.33333 477.23 9.824C477.828 10.3147 478.148 10.9867 478.19 11.84H476.734C476.702 11.3813 476.516 11.0133 476.174 10.736C475.844 10.4587 475.396 10.32 474.83 10.32C474.308 10.32 473.892 10.432 473.582 10.656C473.273 10.88 473.118 11.1733 473.118 11.536C473.118 11.824 473.209 12.064 473.39 12.256C473.582 12.4373 473.817 12.5867 474.094 12.704C474.382 12.8107 474.777 12.9333 475.278 13.072C475.908 13.2427 476.42 13.4133 476.814 13.584C477.209 13.744 477.545 13.9893 477.822 14.32C478.11 14.6507 478.26 15.0827 478.27 15.616C478.27 16.096 478.137 16.528 477.87 16.912C477.604 17.296 477.225 17.6 476.734 17.824C476.254 18.0373 475.7 18.144 475.07 18.144ZM480.79 18.096C480.512 18.096 480.278 18 480.086 17.808C479.894 17.616 479.798 17.3813 479.798 17.104C479.798 16.8267 479.894 16.592 480.086 16.4C480.278 16.208 480.512 16.112 480.79 16.112C481.056 16.112 481.28 16.208 481.462 16.4C481.654 16.592 481.75 16.8267 481.75 17.104C481.75 17.3813 481.654 17.616 481.462 17.808C481.28 18 481.056 18.096 480.79 18.096ZM487.535 16.832C488.889 15.744 489.951 14.8533 490.719 14.16C491.487 13.456 492.132 12.7253 492.655 11.968C493.188 11.2 493.455 10.448 493.455 9.712C493.455 9.01867 493.284 8.47467 492.943 8.08C492.612 7.67467 492.073 7.472 491.327 7.472C490.601 7.472 490.036 7.70133 489.631 8.16C489.236 8.608 489.023 9.21067 488.991 9.968H487.583C487.625 8.77333 487.988 7.85067 488.671 7.2C489.353 6.54933 490.233 6.224 491.311 6.224C492.409 6.224 493.279 6.528 493.919 7.136C494.569 7.744 494.895 8.58133 494.895 9.648C494.895 10.5333 494.628 11.3973 494.095 12.24C493.572 13.072 492.975 13.808 492.303 14.448C491.631 15.0773 490.772 15.8133 489.727 16.656H495.231V17.872H487.535V16.832ZM504.29 7.696H498.674V11.344C498.919 11.0027 499.282 10.7253 499.762 10.512C500.242 10.288 500.759 10.176 501.314 10.176C502.199 10.176 502.919 10.3627 503.474 10.736C504.029 11.0987 504.423 11.5733 504.658 12.16C504.903 12.736 505.026 13.3493 505.026 14C505.026 14.768 504.882 15.456 504.594 16.064C504.306 16.672 503.863 17.152 503.266 17.504C502.679 17.856 501.949 18.032 501.074 18.032C499.954 18.032 499.047 17.744 498.354 17.168C497.661 16.592 497.239 15.824 497.09 14.864H498.514C498.653 15.472 498.946 15.9467 499.394 16.288C499.842 16.6293 500.407 16.8 501.09 16.8C501.933 16.8 502.567 16.5493 502.994 16.048C503.421 15.536 503.634 14.864 503.634 14.032C503.634 13.2 503.421 12.56 502.994 12.112C502.567 11.6533 501.938 11.424 501.106 11.424C500.541 11.424 500.045 11.5627 499.618 11.84C499.202 12.1067 498.898 12.4747 498.706 12.944H497.33V6.416H504.29V7.696ZM506.961 12.096C506.961 10.2613 507.259 8.832 507.857 7.808C508.454 6.77333 509.499 6.256 510.993 6.256C512.475 6.256 513.515 6.77333 514.113 7.808C514.71 8.832 515.009 10.2613 515.009 12.096C515.009 13.9627 514.71 15.4133 514.113 16.448C513.515 17.4827 512.475 18 510.993 18C509.499 18 508.454 17.4827 507.857 16.448C507.259 15.4133 506.961 13.9627 506.961 12.096ZM513.569 12.096C513.569 11.168 513.505 10.384 513.377 9.744C513.259 9.09333 513.009 8.57067 512.625 8.176C512.251 7.78133 511.707 7.584 510.993 7.584C510.267 7.584 509.713 7.78133 509.329 8.176C508.955 8.57067 508.705 9.09333 508.577 9.744C508.459 10.384 508.401 11.168 508.401 12.096C508.401 13.056 508.459 13.8613 508.577 14.512C508.705 15.1627 508.955 15.6853 509.329 16.08C509.713 16.4747 510.267 16.672 510.993 16.672C511.707 16.672 512.251 16.4747 512.625 16.08C513.009 15.6853 513.259 15.1627 513.377 14.512C513.505 13.8613 513.569 13.056 513.569 12.096ZM518.752 15.984L516.96 20.288H515.984L517.152 15.984H518.752ZM520.18 12.096C520.18 10.2613 520.478 8.832 521.076 7.808C521.673 6.77333 522.718 6.256 524.212 6.256C525.694 6.256 526.734 6.77333 527.332 7.808C527.929 8.832 528.227 10.2613 528.227 12.096C528.227 13.9627 527.929 15.4133 527.332 16.448C526.734 17.4827 525.694 18 524.212 18C522.718 18 521.673 17.4827 521.076 16.448C520.478 15.4133 520.18 13.9627 520.18 12.096ZM526.788 12.096C526.788 11.168 526.724 10.384 526.596 9.744C526.478 9.09333 526.228 8.57067 525.844 8.176C525.47 7.78133 524.926 7.584 524.212 7.584C523.486 7.584 522.932 7.78133 522.548 8.176C522.174 8.57067 521.924 9.09333 521.796 9.744C521.678 10.384 521.62 11.168 521.62 12.096C521.62 13.056 521.678 13.8613 521.796 14.512C521.924 15.1627 522.174 15.6853 522.548 16.08C522.932 16.4747 523.486 16.672 524.212 16.672C524.926 16.672 525.47 16.4747 525.844 16.08C526.228 15.6853 526.478 15.1627 526.596 14.512C526.724 13.8613 526.788 13.056 526.788 12.096ZM530.226 12.096C530.226 10.2613 530.525 8.832 531.122 7.808C531.72 6.77333 532.765 6.256 534.258 6.256C535.741 6.256 536.781 6.77333 537.378 7.808C537.976 8.832 538.274 10.2613 538.274 12.096C538.274 13.9627 537.976 15.4133 537.378 16.448C536.781 17.4827 535.741 18 534.258 18C532.765 18 531.72 17.4827 531.122 16.448C530.525 15.4133 530.226 13.9627 530.226 12.096ZM536.834 12.096C536.834 11.168 536.77 10.384 536.642 9.744C536.525 9.09333 536.274 8.57067 535.89 8.176C535.517 7.78133 534.973 7.584 534.258 7.584C533.533 7.584 532.978 7.78133 532.594 8.176C532.221 8.57067 531.97 9.09333 531.842 9.744C531.725 10.384 531.666 11.168 531.666 12.096C531.666 13.056 531.725 13.8613 531.842 14.512C531.97 15.1627 532.221 15.6853 532.594 16.08C532.978 16.4747 533.533 16.672 534.258 16.672C534.973 16.672 535.517 16.4747 535.89 16.08C536.274 15.6853 536.525 15.1627 536.642 14.512C536.77 13.8613 536.834 13.056 536.834 12.096ZM540.273 12.096C540.273 10.2613 540.572 8.832 541.169 7.808C541.767 6.77333 542.812 6.256 544.305 6.256C545.788 6.256 546.828 6.77333 547.425 7.808C548.023 8.832 548.321 10.2613 548.321 12.096C548.321 13.9627 548.023 15.4133 547.425 16.448C546.828 17.4827 545.788 18 544.305 18C542.812 18 541.767 17.4827 541.169 16.448C540.572 15.4133 540.273 13.9627 540.273 12.096ZM546.881 12.096C546.881 11.168 546.817 10.384 546.689 9.744C546.572 9.09333 546.321 8.57067 545.937 8.176C545.564 7.78133 545.02 7.584 544.305 7.584C543.58 7.584 543.025 7.78133 542.641 8.176C542.268 8.57067 542.017 9.09333 541.889 9.744C541.772 10.384 541.713 11.168 541.713 12.096C541.713 13.056 541.772 13.8613 541.889 14.512C542.017 15.1627 542.268 15.6853 542.641 16.08C543.025 16.4747 543.58 16.672 544.305 16.672C545.02 16.672 545.564 16.4747 545.937 16.08C546.321 15.6853 546.572 15.1627 546.689 14.512C546.817 13.8613 546.881 13.056 546.881 12.096ZM551.024 18.096C550.747 18.096 550.512 18 550.32 17.808C550.128 17.616 550.032 17.3813 550.032 17.104C550.032 16.8267 550.128 16.592 550.32 16.4C550.512 16.208 550.747 16.112 551.024 16.112C551.291 16.112 551.515 16.208 551.696 16.4C551.888 16.592 551.984 16.8267 551.984 17.104C551.984 17.3813 551.888 17.616 551.696 17.808C551.515 18 551.291 18.096 551.024 18.096ZM553.68 12.096C553.68 10.2613 553.978 8.832 554.576 7.808C555.173 6.77333 556.218 6.256 557.712 6.256C559.194 6.256 560.234 6.77333 560.832 7.808C561.429 8.832 561.727 10.2613 561.727 12.096C561.727 13.9627 561.429 15.4133 560.832 16.448C560.234 17.4827 559.194 18 557.712 18C556.218 18 555.173 17.4827 554.576 16.448C553.978 15.4133 553.68 13.9627 553.68 12.096ZM560.288 12.096C560.288 11.168 560.224 10.384 560.096 9.744C559.978 9.09333 559.728 8.57067 559.344 8.176C558.97 7.78133 558.426 7.584 557.712 7.584C556.986 7.584 556.432 7.78133 556.048 8.176C555.674 8.57067 555.424 9.09333 555.296 9.744C555.178 10.384 555.12 11.168 555.12 12.096C555.12 13.056 555.178 13.8613 555.296 14.512C555.424 15.1627 555.674 15.6853 556.048 16.08C556.432 16.4747 556.986 16.672 557.712 16.672C558.426 16.672 558.97 16.4747 559.344 16.08C559.728 15.6853 559.978 15.1627 560.096 14.512C560.224 13.8613 560.288 13.056 560.288 12.096ZM563.726 12.096C563.726 10.2613 564.025 8.832 564.622 7.808C565.22 6.77333 566.265 6.256 567.758 6.256C569.241 6.256 570.281 6.77333 570.878 7.808C571.476 8.832 571.774 10.2613 571.774 12.096C571.774 13.9627 571.476 15.4133 570.878 16.448C570.281 17.4827 569.241 18 567.758 18C566.265 18 565.22 17.4827 564.622 16.448C564.025 15.4133 563.726 13.9627 563.726 12.096ZM570.334 12.096C570.334 11.168 570.27 10.384 570.142 9.744C570.025 9.09333 569.774 8.57067 569.39 8.176C569.017 7.78133 568.473 7.584 567.758 7.584C567.033 7.584 566.478 7.78133 566.094 8.176C565.721 8.57067 565.47 9.09333 565.342 9.744C565.225 10.384 565.166 11.168 565.166 12.096C565.166 13.056 565.225 13.8613 565.342 14.512C565.47 15.1627 565.721 15.6853 566.094 16.08C566.478 16.4747 567.033 16.672 567.758 16.672C568.473 16.672 569.017 16.4747 569.39 16.08C569.774 15.6853 570.025 15.1627 570.142 14.512C570.27 13.8613 570.334 13.056 570.334 12.096Z" fill="black"/>
<path d="M7.824 16.52H2.96L2.064 19H0.528L4.56 7.912H6.24L10.256 19H8.72L7.824 16.52ZM7.408 15.336L5.392 9.704L3.376 15.336H7.408ZM15.1173 19.144C14.4453 19.144 13.8426 19.032 13.3093 18.808C12.7759 18.5733 12.3546 18.2533 12.0453 17.848C11.7359 17.432 11.5653 16.9573 11.5333 16.424H13.0373C13.0799 16.8613 13.2826 17.2187 13.6453 17.496C14.0186 17.7733 14.5039 17.912 15.1013 17.912C15.6559 17.912 16.0933 17.7893 16.4133 17.544C16.7333 17.2987 16.8933 16.9893 16.8933 16.616C16.8933 16.232 16.7226 15.9493 16.3813 15.768C16.0399 15.576 15.5119 15.3893 14.7973 15.208C14.1466 15.0373 13.6133 14.8667 13.1973 14.696C12.7919 14.5147 12.4399 14.2533 12.1413 13.912C11.8533 13.56 11.7093 13.1013 11.7093 12.536C11.7093 12.088 11.8426 11.6773 12.1093 11.304C12.3759 10.9307 12.7546 10.6373 13.2453 10.424C13.7359 10.2 14.2959 10.088 14.9253 10.088C15.8959 10.088 16.6799 10.3333 17.2773 10.824C17.8746 11.3147 18.1946 11.9867 18.2373 12.84H16.7813C16.7493 12.3813 16.5626 12.0133 16.2213 11.736C15.8906 11.4587 15.4426 11.32 14.8773 11.32C14.3546 11.32 13.9386 11.432 13.6293 11.656C13.3199 11.88 13.1653 12.1733 13.1653 12.536C13.1653 12.824 13.2559 13.064 13.4373 13.256C13.6293 13.4373 13.8639 13.5867 14.1413 13.704C14.4293 13.8107 14.8239 13.9333 15.3253 14.072C15.9546 14.2427 16.4666 14.4133 16.8613 14.584C17.2559 14.744 17.5919 14.9893 17.8693 15.32C18.1573 15.6507 18.3066 16.0827 18.3173 16.616C18.3173 17.096 18.1839 17.528 17.9173 17.912C17.6506 18.296 17.2719 18.6 16.7813 18.824C16.3013 19.0373 15.7466 19.144 15.1173 19.144ZM23.9886 10.088C24.746 10.088 25.4073 10.2533 25.9726 10.584C26.5486 10.9147 26.9753 11.3307 27.2526 11.832V10.232H28.7246V19.192C28.7246 19.992 28.554 20.7013 28.2126 21.32C27.8713 21.9493 27.3806 22.44 26.7406 22.792C26.1113 23.144 25.3753 23.32 24.5326 23.32C23.3806 23.32 22.4206 23.048 21.6526 22.504C20.8846 21.96 20.4313 21.2187 20.2926 20.28H21.7326C21.8926 20.8133 22.2233 21.24 22.7246 21.56C23.226 21.8907 23.8286 22.056 24.5326 22.056C25.3326 22.056 25.9833 21.8053 26.4846 21.304C26.9966 20.8027 27.2526 20.0987 27.2526 19.192V17.352C26.9646 17.864 26.538 18.2907 25.9726 18.632C25.4073 18.9733 24.746 19.144 23.9886 19.144C23.21 19.144 22.5006 18.952 21.8606 18.568C21.2313 18.184 20.7353 17.6453 20.3726 16.952C20.01 16.2587 19.8286 15.4693 19.8286 14.584C19.8286 13.688 20.01 12.904 20.3726 12.232C20.7353 11.5493 21.2313 11.0213 21.8606 10.648C22.5006 10.2747 23.21 10.088 23.9886 10.088ZM27.2526 14.6C27.2526 13.9387 27.1193 13.3627 26.8526 12.872C26.586 12.3813 26.2233 12.008 25.7646 11.752C25.3166 11.4853 24.8206 11.352 24.2766 11.352C23.7326 11.352 23.2366 11.48 22.7886 11.736C22.3406 11.992 21.9833 12.3653 21.7166 12.856C21.45 13.3467 21.3166 13.9227 21.3166 14.584C21.3166 15.256 21.45 15.8427 21.7166 16.344C21.9833 16.8347 22.3406 17.2133 22.7886 17.48C23.2366 17.736 23.7326 17.864 24.2766 17.864C24.8206 17.864 25.3166 17.736 25.7646 17.48C26.2233 17.2133 26.586 16.8347 26.8526 16.344C27.1193 15.8427 27.2526 15.2613 27.2526 14.6ZM30.6411 14.584C30.6411 13.688 30.8225 12.904 31.1851 12.232C31.5478 11.5493 32.0438 11.0213 32.6731 10.648C33.3131 10.2747 34.0225 10.088 34.8011 10.088C35.5691 10.088 36.2358 10.2533 36.8011 10.584C37.3665 10.9147 37.7878 11.3307 38.0651 11.832V10.232H39.5371V19H38.0651V17.368C37.7771 17.88 37.3451 18.3067 36.7691 18.648C36.2038 18.9787 35.5425 19.144 34.7851 19.144C34.0065 19.144 33.3025 18.952 32.6731 18.568C32.0438 18.184 31.5478 17.6453 31.1851 16.952C30.8225 16.2587 30.6411 15.4693 30.6411 14.584ZM38.0651 14.6C38.0651 13.9387 37.9318 13.3627 37.6651 12.872C37.3985 12.3813 37.0358 12.008 36.5771 11.752C36.1291 11.4853 35.6331 11.352 35.0891 11.352C34.5451 11.352 34.0491 11.48 33.6011 11.736C33.1531 11.992 32.7958 12.3653 32.5291 12.856C32.2625 13.3467 32.1291 13.9227 32.1291 14.584C32.1291 15.256 32.2625 15.8427 32.5291 16.344C32.7958 16.8347 33.1531 17.2133 33.6011 17.48C34.0491 17.736 34.5451 17.864 35.0891 17.864C35.6331 17.864 36.1291 17.736 36.5771 17.48C37.0358 17.2133 37.3985 16.8347 37.6651 16.344C37.9318 15.8427 38.0651 15.2613 38.0651 14.6ZM41.4536 14.584C41.4536 13.688 41.635 12.904 41.9976 12.232C42.3603 11.5493 42.8563 11.0213 43.4856 10.648C44.1256 10.2747 44.835 10.088 45.6136 10.088C46.3816 10.088 47.0483 10.2533 47.6136 10.584C48.179 10.9147 48.6003 11.3307 48.8776 11.832V10.232H50.3496V19H48.8776V17.368C48.5896 17.88 48.1576 18.3067 47.5816 18.648C47.0163 18.9787 46.355 19.144 45.5976 19.144C44.819 19.144 44.115 18.952 43.4856 18.568C42.8563 18.184 42.3603 17.6453 41.9976 16.952C41.635 16.2587 41.4536 15.4693 41.4536 14.584ZM48.8776 14.6C48.8776 13.9387 48.7443 13.3627 48.4776 12.872C48.211 12.3813 47.8483 12.008 47.3896 11.752C46.9416 11.4853 46.4456 11.352 45.9016 11.352C45.3576 11.352 44.8616 11.48 44.4136 11.736C43.9656 11.992 43.6083 12.3653 43.3416 12.856C43.075 13.3467 42.9416 13.9227 42.9416 14.584C42.9416 15.256 43.075 15.8427 43.3416 16.344C43.6083 16.8347 43.9656 17.2133 44.4136 17.48C44.8616 17.736 45.3576 17.864 45.9016 17.864C46.4456 17.864 46.9416 17.736 47.3896 17.48C47.8483 17.2133 48.211 16.8347 48.4776 16.344C48.7443 15.8427 48.8776 15.2613 48.8776 14.6ZM54.2661 11.656C54.5221 11.1547 54.8848 10.7653 55.3541 10.488C55.8341 10.2107 56.4155 10.072 57.0981 10.072V11.576H56.7141C55.0821 11.576 54.2661 12.4613 54.2661 14.232V19H52.8101V10.232H54.2661V11.656ZM58.2349 14.584C58.2349 13.688 58.4162 12.904 58.7789 12.232C59.1415 11.5493 59.6375 11.0213 60.2669 10.648C60.9069 10.2747 61.6215 10.088 62.4109 10.088C63.0935 10.088 63.7282 10.248 64.3149 10.568C64.9015 10.8773 65.3495 11.288 65.6589 11.8V7.16H67.1309V19H65.6589V17.352C65.3709 17.8747 64.9442 18.3067 64.3789 18.648C63.8135 18.9787 63.1522 19.144 62.3949 19.144C61.6162 19.144 60.9069 18.952 60.2669 18.568C59.6375 18.184 59.1415 17.6453 58.7789 16.952C58.4162 16.2587 58.2349 15.4693 58.2349 14.584ZM65.6589 14.6C65.6589 13.9387 65.5255 13.3627 65.2589 12.872C64.9922 12.3813 64.6295 12.008 64.1709 11.752C63.7229 11.4853 63.2269 11.352 62.6829 11.352C62.1389 11.352 61.6429 11.48 61.1949 11.736C60.7469 11.992 60.3895 12.3653 60.1229 12.856C59.8562 13.3467 59.7229 13.9227 59.7229 14.584C59.7229 15.256 59.8562 15.8427 60.1229 16.344C60.3895 16.8347 60.7469 17.2133 61.1949 17.48C61.6429 17.736 62.1389 17.864 62.6829 17.864C63.2269 17.864 63.7229 17.736 64.1709 17.48C64.6295 17.2133 64.9922 16.8347 65.2589 16.344C65.5255 15.8427 65.6589 15.2613 65.6589 14.6ZM76.961 19.144C76.289 19.144 75.6863 19.032 75.153 18.808C74.6197 18.5733 74.1983 18.2533 73.889 17.848C73.5797 17.432 73.409 16.9573 73.377 16.424H74.881C74.9237 16.8613 75.1263 17.2187 75.489 17.496C75.8623 17.7733 76.3477 17.912 76.945 17.912C77.4997 17.912 77.937 17.7893 78.257 17.544C78.577 17.2987 78.737 16.9893 78.737 16.616C78.737 16.232 78.5663 15.9493 78.225 15.768C77.8837 15.576 77.3557 15.3893 76.641 15.208C75.9903 15.0373 75.457 14.8667 75.041 14.696C74.6357 14.5147 74.2837 14.2533 73.985 13.912C73.697 13.56 73.553 13.1013 73.553 12.536C73.553 12.088 73.6863 11.6773 73.953 11.304C74.2197 10.9307 74.5983 10.6373 75.089 10.424C75.5797 10.2 76.1397 10.088 76.769 10.088C77.7397 10.088 78.5237 10.3333 79.121 10.824C79.7183 11.3147 80.0383 11.9867 80.081 12.84H78.625C78.593 12.3813 78.4063 12.0133 78.065 11.736C77.7343 11.4587 77.2863 11.32 76.721 11.32C76.1983 11.32 75.7823 11.432 75.473 11.656C75.1637 11.88 75.009 12.1733 75.009 12.536C75.009 12.824 75.0997 13.064 75.281 13.256C75.473 13.4373 75.7077 13.5867 75.985 13.704C76.273 13.8107 76.6677 13.9333 77.169 14.072C77.7983 14.2427 78.3103 14.4133 78.705 14.584C79.0997 14.744 79.4357 14.9893 79.713 15.32C80.001 15.6507 80.1503 16.0827 80.161 16.616C80.161 17.096 80.0277 17.528 79.761 17.912C79.4943 18.296 79.1157 18.6 78.625 18.824C78.145 19.0373 77.5903 19.144 76.961 19.144ZM86.0404 19.144C85.219 19.144 84.4724 18.9573 83.8004 18.584C83.139 18.2107 82.6164 17.6827 82.2324 17C81.859 16.3067 81.6724 15.5067 81.6724 14.6C81.6724 13.704 81.8644 12.9147 82.2484 12.232C82.643 11.5387 83.1764 11.0107 83.8484 10.648C84.5204 10.2747 85.2724 10.088 86.1044 10.088C86.9364 10.088 87.6884 10.2747 88.3604 10.648C89.0324 11.0107 89.5604 11.5333 89.9444 12.216C90.339 12.8987 90.5364 13.6933 90.5364 14.6C90.5364 15.5067 90.3337 16.3067 89.9284 17C89.5337 17.6827 88.995 18.2107 88.3124 18.584C87.6297 18.9573 86.8724 19.144 86.0404 19.144ZM86.0404 17.864C86.563 17.864 87.0537 17.7413 87.5124 17.496C87.971 17.2507 88.339 16.8827 88.6164 16.392C88.9044 15.9013 89.0484 15.304 89.0484 14.6C89.0484 13.896 88.9097 13.2987 88.6324 12.808C88.355 12.3173 87.9924 11.9547 87.5444 11.72C87.0964 11.4747 86.611 11.352 86.0884 11.352C85.555 11.352 85.0644 11.4747 84.6164 11.72C84.179 11.9547 83.827 12.3173 83.5604 12.808C83.2937 13.2987 83.1604 13.896 83.1604 14.6C83.1604 15.3147 83.2884 15.9173 83.5444 16.408C83.811 16.8987 84.163 17.2667 84.6004 17.512C85.0377 17.7467 85.5177 17.864 86.0404 17.864ZM96.0188 11.432H94.1788V19H92.7228V11.432H91.5868V10.232H92.7228V9.608C92.7228 8.62667 92.9734 7.912 93.4748 7.464C93.9868 7.00533 94.8028 6.776 95.9227 6.776V7.992C95.2828 7.992 94.8294 8.12 94.5628 8.376C94.3068 8.62133 94.1788 9.032 94.1788 9.608V10.232H96.0188V11.432ZM97.1724 14.584C97.1724 13.688 97.3537 12.904 97.7164 12.232C98.079 11.5493 98.575 11.0213 99.2044 10.648C99.8444 10.2747 100.554 10.088 101.332 10.088C102.1 10.088 102.767 10.2533 103.332 10.584C103.898 10.9147 104.319 11.3307 104.596 11.832V10.232H106.068V19H104.596V17.368C104.308 17.88 103.876 18.3067 103.3 18.648C102.735 18.9787 102.074 19.144 101.316 19.144C100.538 19.144 99.8337 18.952 99.2044 18.568C98.575 18.184 98.079 17.6453 97.7164 16.952C97.3537 16.2587 97.1724 15.4693 97.1724 14.584ZM104.596 14.6C104.596 13.9387 104.463 13.3627 104.196 12.872C103.93 12.3813 103.567 12.008 103.108 11.752C102.66 11.4853 102.164 11.352 101.62 11.352C101.076 11.352 100.58 11.48 100.132 11.736C99.6844 11.992 99.327 12.3653 99.0604 12.856C98.7937 13.3467 98.6604 13.9227 98.6604 14.584C98.6604 15.256 98.7937 15.8427 99.0604 16.344C99.327 16.8347 99.6844 17.2133 100.132 17.48C100.58 17.736 101.076 17.864 101.62 17.864C102.164 17.864 102.66 17.736 103.108 17.48C103.567 17.2133 103.93 16.8347 104.196 16.344C104.463 15.8427 104.596 15.2613 104.596 14.6Z" fill="#9F9F9F"/>
<path d="M184.104 19L181.448 14.44H179.688V19H178.232V7.848H181.832C182.675 7.848 183.384 7.992 183.96 8.28C184.547 8.568 184.984 8.95733 185.272 9.448C185.56 9.93867 185.704 10.4987 185.704 11.128C185.704 11.896 185.48 12.5733 185.032 13.16C184.595 13.7467 183.933 14.136 183.048 14.328L185.848 19H184.104ZM179.688 13.272H181.832C182.621 13.272 183.213 13.08 183.608 12.696C184.003 12.3013 184.2 11.7787 184.2 11.128C184.2 10.4667 184.003 9.95467 183.608 9.592C183.224 9.22933 182.632 9.048 181.832 9.048H179.688V13.272ZM191.07 19.144C190.398 19.144 189.796 19.032 189.262 18.808C188.729 18.5733 188.308 18.2533 187.998 17.848C187.689 17.432 187.518 16.9573 187.486 16.424H188.99C189.033 16.8613 189.236 17.2187 189.598 17.496C189.972 17.7733 190.457 17.912 191.054 17.912C191.609 17.912 192.046 17.7893 192.366 17.544C192.686 17.2987 192.846 16.9893 192.846 16.616C192.846 16.232 192.676 15.9493 192.334 15.768C191.993 15.576 191.465 15.3893 190.75 15.208C190.1 15.0373 189.566 14.8667 189.15 14.696C188.745 14.5147 188.393 14.2533 188.094 13.912C187.806 13.56 187.662 13.1013 187.662 12.536C187.662 12.088 187.796 11.6773 188.062 11.304C188.329 10.9307 188.708 10.6373 189.198 10.424C189.689 10.2 190.249 10.088 190.878 10.088C191.849 10.088 192.633 10.3333 193.23 10.824C193.828 11.3147 194.148 11.9867 194.19 12.84H192.734C192.702 12.3813 192.516 12.0133 192.174 11.736C191.844 11.4587 191.396 11.32 190.83 11.32C190.308 11.32 189.892 11.432 189.582 11.656C189.273 11.88 189.118 12.1733 189.118 12.536C189.118 12.824 189.209 13.064 189.39 13.256C189.582 13.4373 189.817 13.5867 190.094 13.704C190.382 13.8107 190.777 13.9333 191.278 14.072C191.908 14.2427 192.42 14.4133 192.814 14.584C193.209 14.744 193.545 14.9893 193.822 15.32C194.11 15.6507 194.26 16.0827 194.27 16.616C194.27 17.096 194.137 17.528 193.87 17.912C193.604 18.296 193.225 18.6 192.734 18.824C192.254 19.0373 191.7 19.144 191.07 19.144ZM196.79 19.096C196.512 19.096 196.278 19 196.086 18.808C195.894 18.616 195.798 18.3813 195.798 18.104C195.798 17.8267 195.894 17.592 196.086 17.4C196.278 17.208 196.512 17.112 196.79 17.112C197.056 17.112 197.28 17.208 197.462 17.4C197.654 17.592 197.75 17.8267 197.75 18.104C197.75 18.3813 197.654 18.616 197.462 18.808C197.28 19 197.056 19.096 196.79 19.096ZM203.535 17.832C204.889 16.744 205.951 15.8533 206.719 15.16C207.487 14.456 208.132 13.7253 208.655 12.968C209.188 12.2 209.455 11.448 209.455 10.712C209.455 10.0187 209.284 9.47467 208.943 9.08C208.612 8.67467 208.073 8.472 207.327 8.472C206.601 8.472 206.036 8.70133 205.631 9.16C205.236 9.608 205.023 10.2107 204.991 10.968H203.583C203.625 9.77333 203.988 8.85067 204.671 8.2C205.353 7.54933 206.233 7.224 207.311 7.224C208.409 7.224 209.279 7.528 209.919 8.136C210.569 8.744 210.895 9.58133 210.895 10.648C210.895 11.5333 210.628 12.3973 210.095 13.24C209.572 14.072 208.975 14.808 208.303 15.448C207.631 16.0773 206.772 16.8133 205.727 17.656H211.231V18.872H203.535V17.832ZM220.29 8.696H214.674V12.344C214.919 12.0027 215.282 11.7253 215.762 11.512C216.242 11.288 216.759 11.176 217.314 11.176C218.199 11.176 218.919 11.3627 219.474 11.736C220.029 12.0987 220.423 12.5733 220.658 13.16C220.903 13.736 221.026 14.3493 221.026 15C221.026 15.768 220.882 16.456 220.594 17.064C220.306 17.672 219.863 18.152 219.266 18.504C218.679 18.856 217.949 19.032 217.074 19.032C215.954 19.032 215.047 18.744 214.354 18.168C213.661 17.592 213.239 16.824 213.09 15.864H214.514C214.653 16.472 214.946 16.9467 215.394 17.288C215.842 17.6293 216.407 17.8 217.09 17.8C217.933 17.8 218.567 17.5493 218.994 17.048C219.421 16.536 219.634 15.864 219.634 15.032C219.634 14.2 219.421 13.56 218.994 13.112C218.567 12.6533 217.938 12.424 217.106 12.424C216.541 12.424 216.045 12.5627 215.618 12.84C215.202 13.1067 214.898 13.4747 214.706 13.944H213.33V7.416H220.29V8.696ZM222.961 13.096C222.961 11.2613 223.259 9.832 223.857 8.808C224.454 7.77333 225.499 7.256 226.993 7.256C228.475 7.256 229.515 7.77333 230.113 8.808C230.71 9.832 231.009 11.2613 231.009 13.096C231.009 14.9627 230.71 16.4133 230.113 17.448C229.515 18.4827 228.475 19 226.993 19C225.499 19 224.454 18.4827 223.857 17.448C223.259 16.4133 222.961 14.9627 222.961 13.096ZM229.569 13.096C229.569 12.168 229.505 11.384 229.377 10.744C229.259 10.0933 229.009 9.57067 228.625 9.176C228.251 8.78133 227.707 8.584 226.993 8.584C226.267 8.584 225.713 8.78133 225.329 9.176C224.955 9.57067 224.705 10.0933 224.577 10.744C224.459 11.384 224.401 12.168 224.401 13.096C224.401 14.056 224.459 14.8613 224.577 15.512C224.705 16.1627 224.955 16.6853 225.329 17.08C225.713 17.4747 226.267 17.672 226.993 17.672C227.707 17.672 228.251 17.4747 228.625 17.08C229.009 16.6853 229.259 16.1627 229.377 15.512C229.505 14.8613 229.569 14.056 229.569 13.096ZM234.752 16.984L232.96 21.288H231.984L233.152 16.984H234.752ZM236.18 13.096C236.18 11.2613 236.478 9.832 237.076 8.808C237.673 7.77333 238.718 7.256 240.212 7.256C241.694 7.256 242.734 7.77333 243.332 8.808C243.929 9.832 244.227 11.2613 244.227 13.096C244.227 14.9627 243.929 16.4133 243.332 17.448C242.734 18.4827 241.694 19 240.212 19C238.718 19 237.673 18.4827 237.076 17.448C236.478 16.4133 236.18 14.9627 236.18 13.096ZM242.788 13.096C242.788 12.168 242.724 11.384 242.596 10.744C242.478 10.0933 242.228 9.57067 241.844 9.176C241.47 8.78133 240.926 8.584 240.212 8.584C239.486 8.584 238.932 8.78133 238.548 9.176C238.174 9.57067 237.924 10.0933 237.796 10.744C237.678 11.384 237.62 12.168 237.62 13.096C237.62 14.056 237.678 14.8613 237.796 15.512C237.924 16.1627 238.174 16.6853 238.548 17.08C238.932 17.4747 239.486 17.672 240.212 17.672C240.926 17.672 241.47 17.4747 241.844 17.08C242.228 16.6853 242.478 16.1627 242.596 15.512C242.724 14.8613 242.788 14.056 242.788 13.096ZM246.226 13.096C246.226 11.2613 246.525 9.832 247.122 8.808C247.72 7.77333 248.765 7.256 250.258 7.256C251.741 7.256 252.781 7.77333 253.378 8.808C253.976 9.832 254.274 11.2613 254.274 13.096C254.274 14.9627 253.976 16.4133 253.378 17.448C252.781 18.4827 251.741 19 250.258 19C248.765 19 247.72 18.4827 247.122 17.448C246.525 16.4133 246.226 14.9627 246.226 13.096ZM252.834 13.096C252.834 12.168 252.77 11.384 252.642 10.744C252.525 10.0933 252.274 9.57067 251.89 9.176C251.517 8.78133 250.973 8.584 250.258 8.584C249.533 8.584 248.978 8.78133 248.594 9.176C248.221 9.57067 247.97 10.0933 247.842 10.744C247.725 11.384 247.666 12.168 247.666 13.096C247.666 14.056 247.725 14.8613 247.842 15.512C247.97 16.1627 248.221 16.6853 248.594 17.08C248.978 17.4747 249.533 17.672 250.258 17.672C250.973 17.672 251.517 17.4747 251.89 17.08C252.274 16.6853 252.525 16.1627 252.642 15.512C252.77 14.8613 252.834 14.056 252.834 13.096ZM256.273 13.096C256.273 11.2613 256.572 9.832 257.169 8.808C257.767 7.77333 258.812 7.256 260.305 7.256C261.788 7.256 262.828 7.77333 263.425 8.808C264.023 9.832 264.321 11.2613 264.321 13.096C264.321 14.9627 264.023 16.4133 263.425 17.448C262.828 18.4827 261.788 19 260.305 19C258.812 19 257.767 18.4827 257.169 17.448C256.572 16.4133 256.273 14.9627 256.273 13.096ZM262.881 13.096C262.881 12.168 262.817 11.384 262.689 10.744C262.572 10.0933 262.321 9.57067 261.937 9.176C261.564 8.78133 261.02 8.584 260.305 8.584C259.58 8.584 259.025 8.78133 258.641 9.176C258.268 9.57067 258.017 10.0933 257.889 10.744C257.772 11.384 257.713 12.168 257.713 13.096C257.713 14.056 257.772 14.8613 257.889 15.512C258.017 16.1627 258.268 16.6853 258.641 17.08C259.025 17.4747 259.58 17.672 260.305 17.672C261.02 17.672 261.564 17.4747 261.937 17.08C262.321 16.6853 262.572 16.1627 262.689 15.512C262.817 14.8613 262.881 14.056 262.881 13.096ZM267.024 19.096C266.747 19.096 266.512 19 266.32 18.808C266.128 18.616 266.032 18.3813 266.032 18.104C266.032 17.8267 266.128 17.592 266.32 17.4C266.512 17.208 266.747 17.112 267.024 17.112C267.291 17.112 267.515 17.208 267.696 17.4C267.888 17.592 267.984 17.8267 267.984 18.104C267.984 18.3813 267.888 18.616 267.696 18.808C267.515 19 267.291 19.096 267.024 19.096ZM269.68 13.096C269.68 11.2613 269.978 9.832 270.576 8.808C271.173 7.77333 272.218 7.256 273.712 7.256C275.194 7.256 276.234 7.77333 276.832 8.808C277.429 9.832 277.727 11.2613 277.727 13.096C277.727 14.9627 277.429 16.4133 276.832 17.448C276.234 18.4827 275.194 19 273.712 19C272.218 19 271.173 18.4827 270.576 17.448C269.978 16.4133 269.68 14.9627 269.68 13.096ZM276.288 13.096C276.288 12.168 276.224 11.384 276.096 10.744C275.978 10.0933 275.728 9.57067 275.344 9.176C274.97 8.78133 274.426 8.584 273.712 8.584C272.986 8.584 272.432 8.78133 272.048 9.176C271.674 9.57067 271.424 10.0933 271.296 10.744C271.178 11.384 271.12 12.168 271.12 13.096C271.12 14.056 271.178 14.8613 271.296 15.512C271.424 16.1627 271.674 16.6853 272.048 17.08C272.432 17.4747 272.986 17.672 273.712 17.672C274.426 17.672 274.97 17.4747 275.344 17.08C275.728 16.6853 275.978 16.1627 276.096 15.512C276.224 14.8613 276.288 14.056 276.288 13.096ZM279.726 13.096C279.726 11.2613 280.025 9.832 280.622 8.808C281.22 7.77333 282.265 7.256 283.758 7.256C285.241 7.256 286.281 7.77333 286.878 8.808C287.476 9.832 287.774 11.2613 287.774 13.096C287.774 14.9627 287.476 16.4133 286.878 17.448C286.281 18.4827 285.241 19 283.758 19C282.265 19 281.22 18.4827 280.622 17.448C280.025 16.4133 279.726 14.9627 279.726 13.096ZM286.334 13.096C286.334 12.168 286.27 11.384 286.142 10.744C286.025 10.0933 285.774 9.57067 285.39 9.176C285.017 8.78133 284.473 8.584 283.758 8.584C283.033 8.584 282.478 8.78133 282.094 9.176C281.721 9.57067 281.47 10.0933 281.342 10.744C281.225 11.384 281.166 12.168 281.166 13.096C281.166 14.056 281.225 14.8613 281.342 15.512C281.47 16.1627 281.721 16.6853 282.094 17.08C282.478 17.4747 283.033 17.672 283.758 17.672C284.473 17.672 285.017 17.4747 285.39 17.08C285.774 16.6853 286.025 16.1627 286.142 15.512C286.27 14.8613 286.334 14.056 286.334 13.096Z" fill="#9F9F9F"/>
</svg>
