<svg width="251" height="353" viewBox="0 0 251 353" fill="none" xmlns="http://www.w3.org/2000/svg">
<path d="M0.888 17.624C0.888 15.992 1.264 14.528 2.016 13.232C2.784 11.936 3.816 10.928 5.112 10.208C6.424 9.472 7.856 9.104 9.408 9.104C11.184 9.104 12.76 9.544 14.136 10.424C15.528 11.288 16.536 12.52 17.16 14.12H13.872C13.44 13.24 12.84 12.584 12.072 12.152C11.304 11.72 10.416 11.504 9.408 11.504C8.304 11.504 7.32 11.752 6.456 12.248C5.592 12.744 4.912 13.456 4.416 14.384C3.936 15.312 3.696 16.392 3.696 17.624C3.696 18.856 3.936 19.936 4.416 20.864C4.912 21.792 5.592 22.512 6.456 23.024C7.32 23.52 8.304 23.768 9.408 23.768C10.416 23.768 11.304 23.552 12.072 23.12C12.84 22.688 13.44 22.032 13.872 21.152H17.16C16.536 22.752 15.528 23.984 14.136 24.848C12.76 25.712 11.184 26.144 9.408 26.144C7.84 26.144 6.408 25.784 5.112 25.064C3.816 24.328 2.784 23.312 2.016 22.016C1.264 20.72 0.888 19.256 0.888 17.624ZM19.4505 19.328C19.4505 18 19.7225 16.824 20.2665 15.8C20.8265 14.776 21.5785 13.984 22.5225 13.424C23.4825 12.848 24.5385 12.56 25.6905 12.56C26.7305 12.56 27.6345 12.768 28.4025 13.184C29.1865 13.584 29.8105 14.088 30.2745 14.696V12.776H33.0345V26H30.2745V24.032C29.8105 24.656 29.1785 25.176 28.3785 25.592C27.5785 26.008 26.6665 26.216 25.6425 26.216C24.5065 26.216 23.4665 25.928 22.5225 25.352C21.5785 24.76 20.8265 23.944 20.2665 22.904C19.7225 21.848 19.4505 20.656 19.4505 19.328ZM30.2745 19.376C30.2745 18.464 30.0825 17.672 29.6985 17C29.3305 16.328 28.8425 15.816 28.2345 15.464C27.6265 15.112 26.9705 14.936 26.2665 14.936C25.5625 14.936 24.9065 15.112 24.2985 15.464C23.6905 15.8 23.1945 16.304 22.8105 16.976C22.4425 17.632 22.2585 18.416 22.2585 19.328C22.2585 20.24 22.4425 21.04 22.8105 21.728C23.1945 22.416 23.6905 22.944 24.2985 23.312C24.9225 23.664 25.5785 23.84 26.2665 23.84C26.9705 23.84 27.6265 23.664 28.2345 23.312C28.8425 22.96 29.3305 22.448 29.6985 21.776C30.0825 21.088 30.2745 20.288 30.2745 19.376ZM39.8201 15.008V22.328C39.8201 22.824 39.9321 23.184 40.1561 23.408C40.3961 23.616 40.7961 23.72 41.3561 23.72H43.0361V26H40.8761C39.6441 26 38.7001 25.712 38.0441 25.136C37.3881 24.56 37.0601 23.624 37.0601 22.328V15.008H35.5001V12.776H37.0601V9.488H39.8201V12.776H43.0361V15.008H39.8201ZM57.6778 19.064C57.6778 19.56 57.6458 20.008 57.5818 20.408H47.4778C47.5578 21.464 47.9498 22.312 48.6538 22.952C49.3578 23.592 50.2218 23.912 51.2458 23.912C52.7178 23.912 53.7578 23.296 54.3658 22.064H57.3178C56.9178 23.28 56.1898 24.28 55.1338 25.064C54.0938 25.832 52.7978 26.216 51.2458 26.216C49.9818 26.216 48.8458 25.936 47.8378 25.376C46.8458 24.8 46.0618 24 45.4858 22.976C44.9258 21.936 44.6458 20.736 44.6458 19.376C44.6458 18.016 44.9178 16.824 45.4618 15.8C46.0218 14.76 46.7978 13.96 47.7898 13.4C48.7978 12.84 49.9498 12.56 51.2458 12.56C52.4938 12.56 53.6058 12.832 54.5818 13.376C55.5578 13.92 56.3178 14.688 56.8618 15.68C57.4058 16.656 57.6778 17.784 57.6778 19.064ZM54.8218 18.2C54.8058 17.192 54.4458 16.384 53.7418 15.776C53.0378 15.168 52.1658 14.864 51.1258 14.864C50.1818 14.864 49.3738 15.168 48.7018 15.776C48.0298 16.368 47.6298 17.176 47.5018 18.2H54.8218ZM65.6983 12.56C66.7223 12.56 67.6263 12.768 68.4103 13.184C69.2103 13.584 69.8343 14.088 70.2823 14.696V12.776H73.0423V26.216C73.0423 27.432 72.7863 28.512 72.2743 29.456C71.7623 30.416 71.0183 31.168 70.0423 31.712C69.0823 32.256 67.9303 32.528 66.5863 32.528C64.7943 32.528 63.3063 32.104 62.1223 31.256C60.9383 30.424 60.2663 29.288 60.1063 27.848H62.8183C63.0263 28.536 63.4663 29.088 64.1383 29.504C64.8263 29.936 65.6423 30.152 66.5863 30.152C67.6903 30.152 68.5783 29.816 69.2503 29.144C69.9383 28.472 70.2823 27.496 70.2823 26.216V24.008C69.8183 24.632 69.1863 25.16 68.3863 25.592C67.6023 26.008 66.7063 26.216 65.6983 26.216C64.5463 26.216 63.4903 25.928 62.5303 25.352C61.5863 24.76 60.8343 23.944 60.2743 22.904C59.7303 21.848 59.4583 20.656 59.4583 19.328C59.4583 18 59.7303 16.824 60.2743 15.8C60.8343 14.776 61.5863 13.984 62.5303 13.424C63.4903 12.848 64.5463 12.56 65.6983 12.56ZM70.2823 19.376C70.2823 18.464 70.0903 17.672 69.7063 17C69.3383 16.328 68.8503 15.816 68.2423 15.464C67.6343 15.112 66.9783 14.936 66.2743 14.936C65.5703 14.936 64.9143 15.112 64.3063 15.464C63.6983 15.8 63.2023 16.304 62.8183 16.976C62.4503 17.632 62.2663 18.416 62.2663 19.328C62.2663 20.24 62.4503 21.04 62.8183 21.728C63.2023 22.416 63.6983 22.944 64.3063 23.312C64.9303 23.664 65.5863 23.84 66.2743 23.84C66.9783 23.84 67.6343 23.664 68.2423 23.312C68.8503 22.96 69.3383 22.448 69.7063 21.776C70.0903 21.088 70.2823 20.288 70.2823 19.376ZM82.3719 26.216C81.1239 26.216 79.9959 25.936 78.9879 25.376C77.9799 24.8 77.1879 24 76.6119 22.976C76.0359 21.936 75.7479 20.736 75.7479 19.376C75.7479 18.032 76.0439 16.84 76.6359 15.8C77.2279 14.76 78.0359 13.96 79.0599 13.4C80.0839 12.84 81.2279 12.56 82.4919 12.56C83.7559 12.56 84.8999 12.84 85.9239 13.4C86.9479 13.96 87.7559 14.76 88.3479 15.8C88.9399 16.84 89.2359 18.032 89.2359 19.376C89.2359 20.72 88.9319 21.912 88.3239 22.952C87.7159 23.992 86.8839 24.8 85.8279 25.376C84.7879 25.936 83.6359 26.216 82.3719 26.216ZM82.3719 23.84C83.0759 23.84 83.7319 23.672 84.3399 23.336C84.9639 23 85.4679 22.496 85.8519 21.824C86.2359 21.152 86.4279 20.336 86.4279 19.376C86.4279 18.416 86.2439 17.608 85.8759 16.952C85.5079 16.28 85.0199 15.776 84.4119 15.44C83.8039 15.104 83.1479 14.936 82.4439 14.936C81.7399 14.936 81.0839 15.104 80.4759 15.44C79.8839 15.776 79.4119 16.28 79.0599 16.952C78.7079 17.608 78.5319 18.416 78.5319 19.376C78.5319 20.8 78.8919 21.904 79.6119 22.688C80.3479 23.456 81.2679 23.84 82.3719 23.84ZM94.6766 14.696C95.0766 14.024 95.6046 13.504 96.2606 13.136C96.9326 12.752 97.7246 12.56 98.6366 12.56V15.392H97.9406C96.8686 15.392 96.0526 15.664 95.4926 16.208C94.9486 16.752 94.6766 17.696 94.6766 19.04V26H91.9406V12.776H94.6766V14.696ZM102.544 11.024C102.048 11.024 101.632 10.856 101.296 10.52C100.96 10.184 100.792 9.768 100.792 9.272C100.792 8.776 100.96 8.36 101.296 8.024C101.632 7.688 102.048 7.52 102.544 7.52C103.024 7.52 103.432 7.688 103.768 8.024C104.104 8.36 104.272 8.776 104.272 9.272C104.272 9.768 104.104 10.184 103.768 10.52C103.432 10.856 103.024 11.024 102.544 11.024ZM103.888 12.776V26H101.152V12.776H103.888ZM119.6 19.064C119.6 19.56 119.568 20.008 119.504 20.408H109.4C109.48 21.464 109.872 22.312 110.576 22.952C111.28 23.592 112.144 23.912 113.168 23.912C114.64 23.912 115.68 23.296 116.288 22.064H119.24C118.84 23.28 118.112 24.28 117.056 25.064C116.016 25.832 114.72 26.216 113.168 26.216C111.904 26.216 110.768 25.936 109.76 25.376C108.768 24.8 107.984 24 107.408 22.976C106.848 21.936 106.568 20.736 106.568 19.376C106.568 18.016 106.84 16.824 107.384 15.8C107.944 14.76 108.72 13.96 109.712 13.4C110.72 12.84 111.872 12.56 113.168 12.56C114.416 12.56 115.528 12.832 116.504 13.376C117.48 13.92 118.24 14.688 118.784 15.68C119.328 16.656 119.6 17.784 119.6 19.064ZM116.744 18.2C116.728 17.192 116.368 16.384 115.664 15.776C114.96 15.168 114.088 14.864 113.048 14.864C112.104 14.864 111.296 15.168 110.624 15.776C109.952 16.368 109.552 17.176 109.424 18.2H116.744ZM127.092 26.216C126.052 26.216 125.116 26.032 124.284 25.664C123.468 25.28 122.82 24.768 122.34 24.128C121.86 23.472 121.604 22.744 121.572 21.944H124.404C124.452 22.504 124.716 22.976 125.196 23.36C125.692 23.728 126.308 23.912 127.044 23.912C127.812 23.912 128.404 23.768 128.82 23.48C129.252 23.176 129.468 22.792 129.468 22.328C129.468 21.832 129.228 21.464 128.748 21.224C128.284 20.984 127.54 20.72 126.516 20.432C125.524 20.16 124.716 19.896 124.092 19.64C123.468 19.384 122.924 18.992 122.46 18.464C122.012 17.936 121.788 17.24 121.788 16.376C121.788 15.672 121.996 15.032 122.412 14.456C122.828 13.864 123.42 13.4 124.188 13.064C124.972 12.728 125.868 12.56 126.876 12.56C128.38 12.56 129.588 12.944 130.5 13.712C131.428 14.464 131.924 15.496 131.988 16.808H129.252C129.204 16.216 128.964 15.744 128.532 15.392C128.1 15.04 127.516 14.864 126.78 14.864C126.06 14.864 125.508 15 125.124 15.272C124.74 15.544 124.548 15.904 124.548 16.352C124.548 16.704 124.676 17 124.932 17.24C125.188 17.48 125.5 17.672 125.868 17.816C126.236 17.944 126.78 18.112 127.5 18.32C128.46 18.576 129.244 18.84 129.852 19.112C130.476 19.368 131.012 19.752 131.46 20.264C131.908 20.776 132.14 21.456 132.156 22.304C132.156 23.056 131.948 23.728 131.532 24.32C131.116 24.912 130.524 25.376 129.756 25.712C129.004 26.048 128.116 26.216 127.092 26.216Z" fill="black"/>
<path d="M0.688 81.416C0.688 80.328 0.933333 79.352 1.424 78.488C1.91467 77.6133 2.58133 76.9307 3.424 76.44C4.27733 75.9493 5.22133 75.704 6.256 75.704C7.472 75.704 8.53333 75.9973 9.44 76.584C10.3467 77.1707 11.008 78.0027 11.424 79.08H9.68C9.37067 78.408 8.92267 77.8907 8.336 77.528C7.76 77.1653 7.06667 76.984 6.256 76.984C5.47733 76.984 4.77867 77.1653 4.16 77.528C3.54133 77.8907 3.056 78.408 2.704 79.08C2.352 79.7413 2.176 80.52 2.176 81.416C2.176 82.3013 2.352 83.08 2.704 83.752C3.056 84.4133 3.54133 84.9253 4.16 85.288C4.77867 85.6507 5.47733 85.832 6.256 85.832C7.06667 85.832 7.76 85.656 8.336 85.304C8.92267 84.9413 9.37067 84.424 9.68 83.752H11.424C11.008 84.8187 10.3467 85.6453 9.44 86.232C8.53333 86.808 7.472 87.096 6.256 87.096C5.22133 87.096 4.27733 86.856 3.424 86.376C2.58133 85.8853 1.91467 85.208 1.424 84.344C0.933333 83.48 0.688 82.504 0.688 81.416ZM15.0474 79.656C15.3034 79.1547 15.666 78.7653 16.1354 78.488C16.6154 78.2107 17.1967 78.072 17.8794 78.072V79.576H17.4954C15.8634 79.576 15.0474 80.4613 15.0474 82.232V87H13.5914V78.232H15.0474V79.656ZM19.0161 82.584C19.0161 81.688 19.1975 80.904 19.5601 80.232C19.9228 79.5493 20.4188 79.0213 21.0481 78.648C21.6881 78.2747 22.3975 78.088 23.1761 78.088C23.9441 78.088 24.6108 78.2533 25.1761 78.584C25.7415 78.9147 26.1628 79.3307 26.4401 79.832V78.232H27.9121V87H26.4401V85.368C26.1521 85.88 25.7201 86.3067 25.1441 86.648C24.5788 86.9787 23.9175 87.144 23.1601 87.144C22.3815 87.144 21.6775 86.952 21.0481 86.568C20.4188 86.184 19.9228 85.6453 19.5601 84.952C19.1975 84.2587 19.0161 83.4693 19.0161 82.584ZM26.4401 82.6C26.4401 81.9387 26.3068 81.3627 26.0401 80.872C25.7735 80.3813 25.4108 80.008 24.9521 79.752C24.5041 79.4853 24.0081 79.352 23.4641 79.352C22.9201 79.352 22.4241 79.48 21.9761 79.736C21.5281 79.992 21.1708 80.3653 20.9041 80.856C20.6375 81.3467 20.5041 81.9227 20.5041 82.584C20.5041 83.256 20.6375 83.8427 20.9041 84.344C21.1708 84.8347 21.5281 85.2133 21.9761 85.48C22.4241 85.736 22.9201 85.864 23.4641 85.864C24.0081 85.864 24.5041 85.736 24.9521 85.48C25.4108 85.2133 25.7735 84.8347 26.0401 84.344C26.3068 83.8427 26.4401 83.2613 26.4401 82.6ZM33.9406 79.432H32.1006V87H30.6446V79.432H29.5086V78.232H30.6446V77.608C30.6446 76.6267 30.8953 75.912 31.3966 75.464C31.9086 75.0053 32.7246 74.776 33.8446 74.776V75.992C33.2046 75.992 32.7513 76.12 32.4846 76.376C32.2286 76.6213 32.1006 77.032 32.1006 77.608V78.232H33.9406V79.432ZM37.4143 79.432V84.6C37.4143 85.0267 37.5049 85.3307 37.6863 85.512C37.8676 85.6827 38.1823 85.768 38.6302 85.768H39.7023V87H38.3903C37.5796 87 36.9716 86.8133 36.5663 86.44C36.1609 86.0667 35.9583 85.4533 35.9583 84.6V79.432H34.8223V78.232H35.9583V76.024H37.4143V78.232H39.7023V79.432H37.4143ZM44.5704 87.144C43.8984 87.144 43.2957 87.032 42.7624 86.808C42.229 86.5733 41.8077 86.2533 41.4984 85.848C41.189 85.432 41.0184 84.9573 40.9864 84.424H42.4904C42.533 84.8613 42.7357 85.2187 43.0984 85.496C43.4717 85.7733 43.957 85.912 44.5544 85.912C45.109 85.912 45.5464 85.7893 45.8664 85.544C46.1864 85.2987 46.3464 84.9893 46.3464 84.616C46.3464 84.232 46.1757 83.9493 45.8344 83.768C45.493 83.576 44.965 83.3893 44.2504 83.208C43.5997 83.0373 43.0664 82.8667 42.6504 82.696C42.245 82.5147 41.893 82.2533 41.5944 81.912C41.3064 81.56 41.1624 81.1013 41.1624 80.536C41.1624 80.088 41.2957 79.6773 41.5624 79.304C41.829 78.9307 42.2077 78.6373 42.6984 78.424C43.189 78.2 43.749 78.088 44.3784 78.088C45.349 78.088 46.133 78.3333 46.7304 78.824C47.3277 79.3147 47.6477 79.9867 47.6904 80.84H46.2344C46.2024 80.3813 46.0157 80.0133 45.6744 79.736C45.3437 79.4587 44.8957 79.32 44.3304 79.32C43.8077 79.32 43.3917 79.432 43.0824 79.656C42.773 79.88 42.6184 80.1733 42.6184 80.536C42.6184 80.824 42.709 81.064 42.8904 81.256C43.0824 81.4373 43.317 81.5867 43.5944 81.704C43.8824 81.8107 44.277 81.9333 44.7784 82.072C45.4077 82.2427 45.9197 82.4133 46.3144 82.584C46.709 82.744 47.045 82.9893 47.3224 83.32C47.6104 83.6507 47.7597 84.0827 47.7704 84.616C47.7704 85.096 47.637 85.528 47.3704 85.912C47.1037 86.296 46.725 86.6 46.2344 86.824C45.7544 87.0373 45.1997 87.144 44.5704 87.144Z" fill="#9F9F9F"/>
<path d="M4.704 140.848C5.92 140.848 6.97067 141.077 7.856 141.536C8.752 141.984 9.43467 142.629 9.904 143.472C10.384 144.315 10.624 145.307 10.624 146.448C10.624 147.589 10.384 148.581 9.904 149.424C9.43467 150.256 8.752 150.896 7.856 151.344C6.97067 151.781 5.92 152 4.704 152H1.232V140.848H4.704ZM4.704 150.8C6.144 150.8 7.24267 150.421 8 149.664C8.75733 148.896 9.136 147.824 9.136 146.448C9.136 145.061 8.752 143.979 7.984 143.2C7.22667 142.421 6.13333 142.032 4.704 142.032H2.688V150.8H4.704ZM20.5445 147.28C20.5445 147.557 20.5285 147.851 20.4965 148.16H13.4885C13.5418 149.024 13.8352 149.701 14.3685 150.192C14.9125 150.672 15.5685 150.912 16.3365 150.912C16.9658 150.912 17.4885 150.768 17.9045 150.48C18.3312 150.181 18.6298 149.787 18.8005 149.296H20.3685C20.1338 150.139 19.6645 150.827 18.9605 151.36C18.2565 151.883 17.3818 152.144 16.3365 152.144C15.5045 152.144 14.7578 151.957 14.0965 151.584C13.4458 151.211 12.9338 150.683 12.5605 150C12.1872 149.307 12.0005 148.507 12.0005 147.6C12.0005 146.693 12.1818 145.899 12.5445 145.216C12.9072 144.533 13.4138 144.011 14.0645 143.648C14.7258 143.275 15.4832 143.088 16.3365 143.088C17.1685 143.088 17.9045 143.269 18.5445 143.632C19.1845 143.995 19.6752 144.496 20.0165 145.136C20.3685 145.765 20.5445 146.48 20.5445 147.28ZM19.0405 146.976C19.0405 146.421 18.9178 145.947 18.6725 145.552C18.4272 145.147 18.0912 144.843 17.6645 144.64C17.2485 144.427 16.7845 144.32 16.2725 144.32C15.5365 144.32 14.9072 144.555 14.3845 145.024C13.8725 145.493 13.5792 146.144 13.5045 146.976H19.0405ZM25.5704 152.144C24.8984 152.144 24.2957 152.032 23.7624 151.808C23.229 151.573 22.8077 151.253 22.4984 150.848C22.189 150.432 22.0184 149.957 21.9864 149.424H23.4904C23.533 149.861 23.7357 150.219 24.0984 150.496C24.4717 150.773 24.957 150.912 25.5544 150.912C26.109 150.912 26.5464 150.789 26.8664 150.544C27.1864 150.299 27.3464 149.989 27.3464 149.616C27.3464 149.232 27.1757 148.949 26.8344 148.768C26.493 148.576 25.965 148.389 25.2504 148.208C24.5997 148.037 24.0664 147.867 23.6504 147.696C23.245 147.515 22.893 147.253 22.5944 146.912C22.3064 146.56 22.1624 146.101 22.1624 145.536C22.1624 145.088 22.2957 144.677 22.5624 144.304C22.829 143.931 23.2077 143.637 23.6984 143.424C24.189 143.2 24.749 143.088 25.3784 143.088C26.349 143.088 27.133 143.333 27.7304 143.824C28.3277 144.315 28.6477 144.987 28.6904 145.84H27.2344C27.2024 145.381 27.0157 145.013 26.6744 144.736C26.3437 144.459 25.8957 144.32 25.3304 144.32C24.8077 144.32 24.3917 144.432 24.0824 144.656C23.773 144.88 23.6184 145.173 23.6184 145.536C23.6184 145.824 23.709 146.064 23.8904 146.256C24.0824 146.437 24.317 146.587 24.5944 146.704C24.8824 146.811 25.277 146.933 25.7784 147.072C26.4077 147.243 26.9197 147.413 27.3144 147.584C27.709 147.744 28.045 147.989 28.3224 148.32C28.6104 148.651 28.7597 149.083 28.7704 149.616C28.7704 150.096 28.637 150.528 28.3704 150.912C28.1037 151.296 27.725 151.6 27.2344 151.824C26.7544 152.037 26.1997 152.144 25.5704 152.144ZM31.5778 141.808C31.3004 141.808 31.0658 141.712 30.8738 141.52C30.6818 141.328 30.5858 141.093 30.5858 140.816C30.5858 140.539 30.6818 140.304 30.8738 140.112C31.0658 139.92 31.3004 139.824 31.5778 139.824C31.8444 139.824 32.0684 139.92 32.2498 140.112C32.4418 140.304 32.5378 140.539 32.5378 140.816C32.5378 141.093 32.4418 141.328 32.2498 141.52C32.0684 141.712 31.8444 141.808 31.5778 141.808ZM32.2818 143.232V152H30.8258V143.232H32.2818ZM38.3793 143.088C39.1366 143.088 39.7979 143.253 40.3633 143.584C40.9393 143.915 41.3659 144.331 41.6433 144.832V143.232H43.1153V152.192C43.1153 152.992 42.9446 153.701 42.6033 154.32C42.2619 154.949 41.7713 155.44 41.1313 155.792C40.5019 156.144 39.7659 156.32 38.9233 156.32C37.7713 156.32 36.8113 156.048 36.0433 155.504C35.2753 154.96 34.8219 154.219 34.6833 153.28H36.1233C36.2833 153.813 36.6139 154.24 37.1153 154.56C37.6166 154.891 38.2193 155.056 38.9233 155.056C39.7233 155.056 40.3739 154.805 40.8753 154.304C41.3873 153.803 41.6433 153.099 41.6433 152.192V150.352C41.3553 150.864 40.9286 151.291 40.3633 151.632C39.7979 151.973 39.1366 152.144 38.3793 152.144C37.6006 152.144 36.8913 151.952 36.2513 151.568C35.6219 151.184 35.1259 150.645 34.7633 149.952C34.4006 149.259 34.2193 148.469 34.2193 147.584C34.2193 146.688 34.4006 145.904 34.7633 145.232C35.1259 144.549 35.6219 144.021 36.2513 143.648C36.8913 143.275 37.6006 143.088 38.3793 143.088ZM41.6433 147.6C41.6433 146.939 41.5099 146.363 41.2433 145.872C40.9766 145.381 40.6139 145.008 40.1553 144.752C39.7073 144.485 39.2113 144.352 38.6673 144.352C38.1233 144.352 37.6273 144.48 37.1793 144.736C36.7313 144.992 36.3739 145.365 36.1073 145.856C35.8406 146.347 35.7073 146.923 35.7073 147.584C35.7073 148.256 35.8406 148.843 36.1073 149.344C36.3739 149.835 36.7313 150.213 37.1793 150.48C37.6273 150.736 38.1233 150.864 38.6673 150.864C39.2113 150.864 39.7073 150.736 40.1553 150.48C40.6139 150.213 40.9766 149.835 41.2433 149.344C41.5099 148.843 41.6433 148.261 41.6433 147.6ZM49.8478 143.072C50.9144 143.072 51.7784 143.397 52.4398 144.048C53.1011 144.688 53.4318 145.616 53.4318 146.832V152H51.9918V147.04C51.9918 146.165 51.7731 145.499 51.3358 145.04C50.8984 144.571 50.3011 144.336 49.5438 144.336C48.7758 144.336 48.1624 144.576 47.7038 145.056C47.2558 145.536 47.0318 146.235 47.0318 147.152V152H45.5758V143.232H47.0318V144.48C47.3198 144.032 47.7091 143.685 48.1998 143.44C48.7011 143.195 49.2504 143.072 49.8478 143.072Z" fill="#9F9F9F"/>
<path d="M9.824 205.848V217H8.368V211.944H2.688V217H1.232V205.848H2.688V210.744H8.368V205.848H9.824ZM11.7661 212.584C11.7661 211.688 11.9475 210.904 12.3101 210.232C12.6728 209.549 13.1688 209.021 13.7981 208.648C14.4381 208.275 15.1475 208.088 15.9261 208.088C16.6941 208.088 17.3608 208.253 17.9261 208.584C18.4915 208.915 18.9128 209.331 19.1901 209.832V208.232H20.6621V217H19.1901V215.368C18.9021 215.88 18.4701 216.307 17.8941 216.648C17.3288 216.979 16.6675 217.144 15.9101 217.144C15.1315 217.144 14.4275 216.952 13.7981 216.568C13.1688 216.184 12.6728 215.645 12.3101 214.952C11.9475 214.259 11.7661 213.469 11.7661 212.584ZM19.1901 212.6C19.1901 211.939 19.0568 211.363 18.7901 210.872C18.5235 210.381 18.1608 210.008 17.7021 209.752C17.2541 209.485 16.7581 209.352 16.2141 209.352C15.6701 209.352 15.1741 209.48 14.7261 209.736C14.2781 209.992 13.9208 210.365 13.6541 210.856C13.3875 211.347 13.2541 211.923 13.2541 212.584C13.2541 213.256 13.3875 213.843 13.6541 214.344C13.9208 214.835 14.2781 215.213 14.7261 215.48C15.1741 215.736 15.6701 215.864 16.2141 215.864C16.7581 215.864 17.2541 215.736 17.7021 215.48C18.1608 215.213 18.5235 214.835 18.7901 214.344C19.0568 213.843 19.1901 213.261 19.1901 212.6ZM27.3946 208.072C28.4613 208.072 29.3253 208.397 29.9866 209.048C30.648 209.688 30.9786 210.616 30.9786 211.832V217H29.5386V212.04C29.5386 211.165 29.32 210.499 28.8826 210.04C28.4453 209.571 27.848 209.336 27.0906 209.336C26.3226 209.336 25.7093 209.576 25.2506 210.056C24.8026 210.536 24.5786 211.235 24.5786 212.152V217H23.1226V208.232H24.5786V209.48C24.8666 209.032 25.256 208.685 25.7466 208.44C26.248 208.195 26.7973 208.072 27.3946 208.072ZM32.813 212.584C32.813 211.688 32.9943 210.904 33.357 210.232C33.7197 209.549 34.2157 209.021 34.845 208.648C35.485 208.275 36.1997 208.088 36.989 208.088C37.6717 208.088 38.3063 208.248 38.893 208.568C39.4797 208.877 39.9277 209.288 40.237 209.8V205.16H41.709V217H40.237V215.352C39.949 215.875 39.5223 216.307 38.957 216.648C38.3917 216.979 37.7303 217.144 36.973 217.144C36.1943 217.144 35.485 216.952 34.845 216.568C34.2157 216.184 33.7197 215.645 33.357 214.952C32.9943 214.259 32.813 213.469 32.813 212.584ZM40.237 212.6C40.237 211.939 40.1037 211.363 39.837 210.872C39.5703 210.381 39.2077 210.008 38.749 209.752C38.301 209.485 37.805 209.352 37.261 209.352C36.717 209.352 36.221 209.48 35.773 209.736C35.325 209.992 34.9677 210.365 34.701 210.856C34.4343 211.347 34.301 211.923 34.301 212.584C34.301 213.256 34.4343 213.843 34.701 214.344C34.9677 214.835 35.325 215.213 35.773 215.48C36.221 215.736 36.717 215.864 37.261 215.864C37.805 215.864 38.301 215.736 38.749 215.48C39.2077 215.213 39.5703 214.835 39.837 214.344C40.1037 213.843 40.237 213.261 40.237 212.6ZM54.7135 208.072C55.3962 208.072 56.0042 208.216 56.5375 208.504C57.0708 208.781 57.4922 209.203 57.8015 209.768C58.1108 210.333 58.2655 211.021 58.2655 211.832V217H56.8255V212.04C56.8255 211.165 56.6068 210.499 56.1695 210.04C55.7428 209.571 55.1615 209.336 54.4255 209.336C53.6682 209.336 53.0655 209.581 52.6175 210.072C52.1695 210.552 51.9455 211.251 51.9455 212.168V217H50.5055V212.04C50.5055 211.165 50.2868 210.499 49.8495 210.04C49.4228 209.571 48.8415 209.336 48.1055 209.336C47.3482 209.336 46.7455 209.581 46.2975 210.072C45.8495 210.552 45.6255 211.251 45.6255 212.168V217H44.1695V208.232H45.6255V209.496C45.9135 209.037 46.2975 208.685 46.7775 208.44C47.2682 208.195 47.8068 208.072 48.3935 208.072C49.1295 208.072 49.7802 208.237 50.3455 208.568C50.9108 208.899 51.3322 209.384 51.6095 210.024C51.8548 209.405 52.2602 208.925 52.8255 208.584C53.3908 208.243 54.0202 208.072 54.7135 208.072ZM60.1099 212.584C60.1099 211.688 60.2912 210.904 60.6539 210.232C61.0165 209.549 61.5125 209.021 62.1419 208.648C62.7819 208.275 63.4912 208.088 64.2699 208.088C65.0379 208.088 65.7045 208.253 66.2699 208.584C66.8352 208.915 67.2565 209.331 67.5339 209.832V208.232H69.0059V217H67.5339V215.368C67.2459 215.88 66.8139 216.307 66.2379 216.648C65.6725 216.979 65.0112 217.144 64.2539 217.144C63.4752 217.144 62.7712 216.952 62.1419 216.568C61.5125 216.184 61.0165 215.645 60.6539 214.952C60.2912 214.259 60.1099 213.469 60.1099 212.584ZM67.5339 212.6C67.5339 211.939 67.4005 211.363 67.1339 210.872C66.8672 210.381 66.5045 210.008 66.0459 209.752C65.5979 209.485 65.1019 209.352 64.5579 209.352C64.0139 209.352 63.5179 209.48 63.0699 209.736C62.6219 209.992 62.2645 210.365 61.9979 210.856C61.7312 211.347 61.5979 211.923 61.5979 212.584C61.5979 213.256 61.7312 213.843 61.9979 214.344C62.2645 214.835 62.6219 215.213 63.0699 215.48C63.5179 215.736 64.0139 215.864 64.5579 215.864C65.1019 215.864 65.5979 215.736 66.0459 215.48C66.5045 215.213 66.8672 214.835 67.1339 214.344C67.4005 213.843 67.5339 213.261 67.5339 212.6ZM70.9224 212.584C70.9224 211.688 71.1037 210.904 71.4664 210.232C71.829 209.549 72.325 209.021 72.9544 208.648C73.5944 208.275 74.309 208.088 75.0984 208.088C75.781 208.088 76.4157 208.248 77.0024 208.568C77.589 208.877 78.037 209.288 78.3464 209.8V205.16H79.8184V217H78.3464V215.352C78.0584 215.875 77.6317 216.307 77.0664 216.648C76.501 216.979 75.8397 217.144 75.0824 217.144C74.3037 217.144 73.5944 216.952 72.9544 216.568C72.325 216.184 71.829 215.645 71.4664 214.952C71.1037 214.259 70.9224 213.469 70.9224 212.584ZM78.3464 212.6C78.3464 211.939 78.213 211.363 77.9464 210.872C77.6797 210.381 77.317 210.008 76.8584 209.752C76.4104 209.485 75.9144 209.352 75.3704 209.352C74.8264 209.352 74.3304 209.48 73.8824 209.736C73.4344 209.992 73.077 210.365 72.8104 210.856C72.5437 211.347 72.4104 211.923 72.4104 212.584C72.4104 213.256 72.5437 213.843 72.8104 214.344C73.077 214.835 73.4344 215.213 73.8824 215.48C74.3304 215.736 74.8264 215.864 75.3704 215.864C75.9144 215.864 76.4104 215.736 76.8584 215.48C77.317 215.213 77.6797 214.835 77.9464 214.344C78.213 213.843 78.3464 213.261 78.3464 212.6ZM90.2789 212.28C90.2789 212.557 90.2629 212.851 90.2309 213.16H83.2229C83.2762 214.024 83.5695 214.701 84.1029 215.192C84.6469 215.672 85.3029 215.912 86.0709 215.912C86.7002 215.912 87.2229 215.768 87.6389 215.48C88.0655 215.181 88.3642 214.787 88.5349 214.296H90.1029C89.8682 215.139 89.3989 215.827 88.6949 216.36C87.9909 216.883 87.1162 217.144 86.0709 217.144C85.2389 217.144 84.4922 216.957 83.8309 216.584C83.1802 216.211 82.6682 215.683 82.2949 215C81.9215 214.307 81.7349 213.507 81.7349 212.6C81.7349 211.693 81.9162 210.899 82.2789 210.216C82.6415 209.533 83.1482 209.011 83.7989 208.648C84.4602 208.275 85.2175 208.088 86.0709 208.088C86.9029 208.088 87.6389 208.269 88.2789 208.632C88.9189 208.995 89.4095 209.496 89.7509 210.136C90.1029 210.765 90.2789 211.48 90.2789 212.28ZM88.7749 211.976C88.7749 211.421 88.6522 210.947 88.4069 210.552C88.1615 210.147 87.8255 209.843 87.3989 209.64C86.9829 209.427 86.5189 209.32 86.0069 209.32C85.2709 209.32 84.6415 209.555 84.1189 210.024C83.6069 210.493 83.3135 211.144 83.2389 211.976H88.7749Z" fill="#9F9F9F"/>
<path d="M2.688 270.848V282H1.232V270.848H2.688ZM9.4415 273.072C10.5082 273.072 11.3722 273.397 12.0335 274.048C12.6948 274.688 13.0255 275.616 13.0255 276.832V282H11.5855V277.04C11.5855 276.165 11.3668 275.499 10.9295 275.04C10.4922 274.571 9.89483 274.336 9.1375 274.336C8.3695 274.336 7.75617 274.576 7.2975 275.056C6.8495 275.536 6.6255 276.235 6.6255 277.152V282H5.1695V273.232H6.6255V274.48C6.9135 274.032 7.30283 273.685 7.7935 273.44C8.29483 273.195 8.84417 273.072 9.4415 273.072ZM17.1799 274.432V279.6C17.1799 280.027 17.2705 280.331 17.4519 280.512C17.6332 280.683 17.9479 280.768 18.3959 280.768H19.4679V282H18.1559C17.3452 282 16.7372 281.813 16.3319 281.44C15.9265 281.067 15.7239 280.453 15.7239 279.6V274.432H14.5879V273.232H15.7239V271.024H17.1799V273.232H19.4679V274.432H17.1799ZM29.232 277.28C29.232 277.557 29.216 277.851 29.184 278.16H22.176C22.2293 279.024 22.5227 279.701 23.056 280.192C23.6 280.672 24.256 280.912 25.024 280.912C25.6533 280.912 26.176 280.768 26.592 280.48C27.0187 280.181 27.3173 279.787 27.488 279.296H29.056C28.8213 280.139 28.352 280.827 27.648 281.36C26.944 281.883 26.0693 282.144 25.024 282.144C24.192 282.144 23.4453 281.957 22.784 281.584C22.1333 281.211 21.6213 280.683 21.248 280C20.8747 279.307 20.688 278.507 20.688 277.6C20.688 276.693 20.8693 275.899 21.232 275.216C21.5947 274.533 22.1013 274.011 22.752 273.648C23.4133 273.275 24.1707 273.088 25.024 273.088C25.856 273.088 26.592 273.269 27.232 273.632C27.872 273.995 28.3627 274.496 28.704 275.136C29.056 275.765 29.232 276.48 29.232 277.28ZM27.728 276.976C27.728 276.421 27.6053 275.947 27.36 275.552C27.1147 275.147 26.7787 274.843 26.352 274.64C25.936 274.427 25.472 274.32 24.96 274.32C24.224 274.32 23.5947 274.555 23.072 275.024C22.56 275.493 22.2667 276.144 22.192 276.976H27.728ZM32.6099 274.656C32.8659 274.155 33.2285 273.765 33.6979 273.488C34.1779 273.211 34.7592 273.072 35.4419 273.072V274.576H35.0579C33.4259 274.576 32.6099 275.461 32.6099 277.232V282H31.1539V273.232H32.6099V274.656ZM37.8746 271.808C37.5973 271.808 37.3626 271.712 37.1706 271.52C36.9786 271.328 36.8826 271.093 36.8826 270.816C36.8826 270.539 36.9786 270.304 37.1706 270.112C37.3626 269.92 37.5973 269.824 37.8746 269.824C38.1413 269.824 38.3653 269.92 38.5466 270.112C38.7386 270.304 38.8346 270.539 38.8346 270.816C38.8346 271.093 38.7386 271.328 38.5466 271.52C38.3653 271.712 38.1413 271.808 37.8746 271.808ZM38.5786 273.232V282H37.1226V273.232H38.5786ZM44.8841 282.144C44.0628 282.144 43.3161 281.957 42.6441 281.584C41.9828 281.211 41.4601 280.683 41.0761 280C40.7028 279.307 40.5161 278.507 40.5161 277.6C40.5161 276.704 40.7081 275.915 41.0921 275.232C41.4868 274.539 42.0201 274.011 42.6921 273.648C43.3641 273.275 44.1161 273.088 44.9481 273.088C45.7801 273.088 46.5321 273.275 47.2041 273.648C47.8761 274.011 48.4041 274.533 48.7881 275.216C49.1828 275.899 49.3801 276.693 49.3801 277.6C49.3801 278.507 49.1775 279.307 48.7721 280C48.3775 280.683 47.8388 281.211 47.1561 281.584C46.4735 281.957 45.7161 282.144 44.8841 282.144ZM44.8841 280.864C45.4068 280.864 45.8975 280.741 46.3561 280.496C46.8148 280.251 47.1828 279.883 47.4601 279.392C47.7481 278.901 47.8921 278.304 47.8921 277.6C47.8921 276.896 47.7535 276.299 47.4761 275.808C47.1988 275.317 46.8361 274.955 46.3881 274.72C45.9401 274.475 45.4548 274.352 44.9321 274.352C44.3988 274.352 43.9081 274.475 43.4601 274.72C43.0228 274.955 42.6708 275.317 42.4041 275.808C42.1375 276.299 42.0041 276.896 42.0041 277.6C42.0041 278.315 42.1321 278.917 42.3881 279.408C42.6548 279.899 43.0068 280.267 43.4441 280.512C43.8815 280.747 44.3615 280.864 44.8841 280.864ZM52.7505 274.656C53.0065 274.155 53.3692 273.765 53.8385 273.488C54.3185 273.211 54.8998 273.072 55.5825 273.072V274.576H55.1985C53.5665 274.576 52.7505 275.461 52.7505 277.232V282H51.2945V273.232H52.7505V274.656Z" fill="#9F9F9F"/>
<path d="M15.248 335.848L12.016 347H10.384L7.792 338.024L5.104 347L3.488 347.016L0.368 335.848H1.92L4.352 345.304L7.04 335.848H8.672L11.232 345.272L13.68 335.848H15.248ZM20.6654 347.144C19.844 347.144 19.0974 346.957 18.4254 346.584C17.764 346.211 17.2414 345.683 16.8574 345C16.484 344.307 16.2974 343.507 16.2974 342.6C16.2974 341.704 16.4894 340.915 16.8734 340.232C17.268 339.539 17.8014 339.011 18.4734 338.648C19.1454 338.275 19.8974 338.088 20.7294 338.088C21.5614 338.088 22.3134 338.275 22.9854 338.648C23.6574 339.011 24.1854 339.533 24.5694 340.216C24.964 340.899 25.1614 341.693 25.1614 342.6C25.1614 343.507 24.9587 344.307 24.5534 345C24.1587 345.683 23.62 346.211 22.9374 346.584C22.2547 346.957 21.4974 347.144 20.6654 347.144ZM20.6654 345.864C21.188 345.864 21.6787 345.741 22.1374 345.496C22.596 345.251 22.964 344.883 23.2414 344.392C23.5294 343.901 23.6734 343.304 23.6734 342.6C23.6734 341.896 23.5347 341.299 23.2574 340.808C22.98 340.317 22.6174 339.955 22.1694 339.72C21.7214 339.475 21.236 339.352 20.7134 339.352C20.18 339.352 19.6894 339.475 19.2414 339.72C18.804 339.955 18.452 340.317 18.1854 340.808C17.9187 341.299 17.7854 341.896 17.7854 342.6C17.7854 343.315 17.9134 343.917 18.1694 344.408C18.436 344.899 18.788 345.267 19.2254 345.512C19.6627 345.747 20.1427 345.864 20.6654 345.864ZM30.8998 347.144C30.0784 347.144 29.3318 346.957 28.6598 346.584C27.9984 346.211 27.4758 345.683 27.0918 345C26.7184 344.307 26.5318 343.507 26.5318 342.6C26.5318 341.704 26.7238 340.915 27.1078 340.232C27.5024 339.539 28.0358 339.011 28.7078 338.648C29.3798 338.275 30.1318 338.088 30.9638 338.088C31.7958 338.088 32.5478 338.275 33.2198 338.648C33.8918 339.011 34.4198 339.533 34.8038 340.216C35.1984 340.899 35.3958 341.693 35.3958 342.6C35.3958 343.507 35.1931 344.307 34.7878 345C34.3931 345.683 33.8544 346.211 33.1718 346.584C32.4891 346.957 31.7318 347.144 30.8998 347.144ZM30.8998 345.864C31.4224 345.864 31.9131 345.741 32.3718 345.496C32.8304 345.251 33.1984 344.883 33.4758 344.392C33.7638 343.901 33.9078 343.304 33.9078 342.6C33.9078 341.896 33.7691 341.299 33.4918 340.808C33.2144 340.317 32.8518 339.955 32.4038 339.72C31.9558 339.475 31.4704 339.352 30.9478 339.352C30.4144 339.352 29.9238 339.475 29.4758 339.72C29.0384 339.955 28.6864 340.317 28.4198 340.808C28.1531 341.299 28.0198 341.896 28.0198 342.6C28.0198 343.315 28.1478 343.917 28.4038 344.408C28.6704 344.899 29.0224 345.267 29.4598 345.512C29.8971 345.747 30.3771 345.864 30.8998 345.864ZM36.7661 342.584C36.7661 341.688 36.9475 340.904 37.3101 340.232C37.6728 339.549 38.1688 339.021 38.7981 338.648C39.4381 338.275 40.1528 338.088 40.9421 338.088C41.6248 338.088 42.2595 338.248 42.8461 338.568C43.4328 338.877 43.8808 339.288 44.1901 339.8V335.16H45.6621V347H44.1901V345.352C43.9021 345.875 43.4755 346.307 42.9101 346.648C42.3448 346.979 41.6835 347.144 40.9261 347.144C40.1475 347.144 39.4381 346.952 38.7981 346.568C38.1688 346.184 37.6728 345.645 37.3101 344.952C36.9475 344.259 36.7661 343.469 36.7661 342.584ZM44.1901 342.6C44.1901 341.939 44.0568 341.363 43.7901 340.872C43.5235 340.381 43.1608 340.008 42.7021 339.752C42.2541 339.485 41.7581 339.352 41.2141 339.352C40.6701 339.352 40.1741 339.48 39.7261 339.736C39.2781 339.992 38.9208 340.365 38.6541 340.856C38.3875 341.347 38.2541 341.923 38.2541 342.584C38.2541 343.256 38.3875 343.843 38.6541 344.344C38.9208 344.835 39.2781 345.213 39.7261 345.48C40.1741 345.736 40.6701 345.864 41.2141 345.864C41.7581 345.864 42.2541 345.736 42.7021 345.48C43.1608 345.213 43.5235 344.835 43.7901 344.344C44.0568 343.843 44.1901 343.261 44.1901 342.6Z" fill="#9F9F9F"/>
<path d="M240.816 85.832C242.171 84.744 243.232 83.8533 244 83.16C244.768 82.456 245.413 81.7253 245.936 80.968C246.469 80.2 246.736 79.448 246.736 78.712C246.736 78.0187 246.565 77.4747 246.224 77.08C245.893 76.6747 245.355 76.472 244.608 76.472C243.883 76.472 243.317 76.7013 242.912 77.16C242.517 77.608 242.304 78.2107 242.272 78.968H240.864C240.907 77.7733 241.269 76.8507 241.952 76.2C242.635 75.5493 243.515 75.224 244.592 75.224C245.691 75.224 246.56 75.528 247.2 76.136C247.851 76.744 248.176 77.5813 248.176 78.648C248.176 79.5333 247.909 80.3973 247.376 81.24C246.853 82.072 246.256 82.808 245.584 83.448C244.912 84.0773 244.053 84.8133 243.008 85.656H248.512V86.872H240.816V85.832Z" fill="#9F9F9F"/>
<path d="M243.104 145.984C242.507 145.749 242.048 145.408 241.728 144.96C241.408 144.512 241.248 143.968 241.248 143.328C241.248 142.752 241.392 142.235 241.68 141.776C241.968 141.307 242.395 140.939 242.96 140.672C243.536 140.395 244.229 140.256 245.04 140.256C245.851 140.256 246.539 140.395 247.104 140.672C247.68 140.939 248.112 141.307 248.4 141.776C248.699 142.235 248.848 142.752 248.848 143.328C248.848 143.947 248.683 144.491 248.352 144.96C248.021 145.419 247.568 145.76 246.992 145.984C247.653 146.187 248.176 146.544 248.56 147.056C248.955 147.557 249.152 148.165 249.152 148.88C249.152 149.573 248.981 150.181 248.64 150.704C248.299 151.216 247.813 151.616 247.184 151.904C246.565 152.181 245.851 152.32 245.04 152.32C244.229 152.32 243.515 152.181 242.896 151.904C242.288 151.616 241.813 151.216 241.472 150.704C241.131 150.181 240.96 149.573 240.96 148.88C240.96 148.165 241.152 147.552 241.536 147.04C241.92 146.528 242.443 146.176 243.104 145.984ZM247.44 143.504C247.44 142.853 247.227 142.352 246.8 142C246.373 141.648 245.787 141.472 245.04 141.472C244.304 141.472 243.723 141.648 243.296 142C242.869 142.352 242.656 142.859 242.656 143.52C242.656 144.117 242.875 144.597 243.312 144.96C243.76 145.323 244.336 145.504 245.04 145.504C245.755 145.504 246.331 145.323 246.768 144.96C247.216 144.587 247.44 144.101 247.44 143.504ZM245.04 146.624C244.251 146.624 243.605 146.811 243.104 147.184C242.603 147.547 242.352 148.096 242.352 148.832C242.352 149.515 242.592 150.064 243.072 150.48C243.563 150.896 244.219 151.104 245.04 151.104C245.861 151.104 246.512 150.896 246.992 150.48C247.472 150.064 247.712 149.515 247.712 148.832C247.712 148.117 247.467 147.573 246.976 147.2C246.485 146.816 245.84 146.624 245.04 146.624Z" fill="#9F9F9F"/>
<path d="M248.112 206.568L243.664 217H242.192L246.704 206.712H240.528V205.464H248.112V206.568Z" fill="#9F9F9F"/>
<path d="M240.608 271.76V270.432H243.616V282H242.144V271.76H240.608Z" fill="#9F9F9F"/>
<path d="M247.44 338.184C247.205 337 246.475 336.408 245.248 336.408C244.299 336.408 243.589 336.776 243.12 337.512C242.651 338.237 242.421 339.437 242.432 341.112C242.677 340.557 243.083 340.125 243.648 339.816C244.224 339.496 244.864 339.336 245.568 339.336C246.667 339.336 247.541 339.677 248.192 340.36C248.853 341.043 249.184 341.987 249.184 343.192C249.184 343.917 249.04 344.568 248.752 345.144C248.475 345.72 248.048 346.179 247.472 346.52C246.907 346.861 246.219 347.032 245.408 347.032C244.309 347.032 243.451 346.787 242.832 346.296C242.213 345.805 241.781 345.128 241.536 344.264C241.291 343.4 241.168 342.333 241.168 341.064C241.168 337.149 242.533 335.192 245.264 335.192C246.309 335.192 247.131 335.475 247.728 336.04C248.325 336.605 248.677 337.32 248.784 338.184H247.44ZM245.264 340.568C244.805 340.568 244.373 340.664 243.968 340.856C243.563 341.037 243.232 341.32 242.976 341.704C242.731 342.077 242.608 342.536 242.608 343.08C242.608 343.891 242.843 344.552 243.312 345.064C243.781 345.565 244.453 345.816 245.328 345.816C246.075 345.816 246.667 345.587 247.104 345.128C247.552 344.659 247.776 344.029 247.776 343.24C247.776 342.408 247.563 341.757 247.136 341.288C246.709 340.808 246.085 340.568 245.264 340.568Z" fill="#9F9F9F"/>
</svg>
